{
  "accessors": [
    {
      "bufferView": 0,
      "componentType": 5126,
      "count": 16,
      "max": [
        144.99996948242188,
        -464.9991149902344,
        -55.0
      ],
      "min": [
        -645.0003662109375,
        -944.9995727539063,
        -1925.0
      ],
      "type": "VEC3"
    },
    {
      "bufferView": 0,
      "byteOffset": 12,
      "componentType": 5126,
      "count": 16,
      "type": "VEC3"
    },
    {
      "bufferView": 1,
      "componentType": 5125,
      "count": 24,
      "type": "SCALAR"
    },
    {
      "bufferView": 0,
      "byteOffset": 512,
      "componentType": 5126,
      "count": 632,
      "max": [
        155.0,
        -384.2926025390625,
        5.0
      ],
      "min": [
        -655.0001831054688,
        -1004.9996337890625,
        -1995.0001220703125
      ],
      "type": "VEC3"
    },
    {
      "bufferView": 0,
      "byteOffset": 524,
      "componentType": 5126,
      "count": 632,
      "type": "VEC3"
    },
    {
      "bufferView": 1,
      "byteOffset": 96,
      "componentType": 5125,
      "count": 798,
      "type": "SCALAR"
    },
    {
      "bufferView": 0,
      "byteOffset": 20736,
      "componentType": 5126,
      "count": 64,
      "max": [
        110.00003051757813,
        -425.0,
        -476.5597839355469
      ],
      "min": [
        -610.000244140625,
        -984.9990234375,
        -1502.7373046875
      ],
      "type": "VEC3"
    },
    {
      "bufferView": 0,
      "byteOffset": 20748,
      "componentType": 5126,
      "count": 64,
      "type": "VEC3"
    },
    {
      "bufferView": 1,
      "byteOffset": 3288,
      "componentType": 5125,
      "count": 96,
      "type": "SCALAR"
    },
    {
      "bufferView": 0,
      "byteOffset": 22784,
      "componentType": 5126,
      "count": 8,
      "max": [
        -15.956344604492188,
        -444.9991760253906,
        -35.0
      ],
      "min": [
        -481.1634216308594,
        -964.999267578125,
        -1945.0
      ],
      "type": "VEC3"
    },
    {
      "bufferView": 0,
      "byteOffset": 22796,
      "componentType": 5126,
      "count": 8,
      "type": "VEC3"
    },
    {
      "bufferView": 1,
      "byteOffset": 3672,
      "componentType": 5125,
      "count": 12,
      "type": "SCALAR"
    },
    {
      "bufferView": 0,
      "byteOffset": 23040,
      "componentType": 5126,
      "count": 8,
      "max": [
        -15.956222534179688,
        -444.9997253417969,
        -35.0
      ],
      "min": [
        -481.1634826660156,
        -964.9993286132813,
        -1945.0
      ],
      "type": "VEC3"
    },
    {
      "bufferView": 0,
      "byteOffset": 23052,
      "componentType": 5126,
      "count": 8,
      "type": "VEC3"
    },
    {
      "bufferView": 1,
      "byteOffset": 3720,
      "componentType": 5125,
      "count": 12,
      "type": "SCALAR"
    }
  ],
  "asset": {
    "version": "2.0"
  },
  "bufferViews": [
    {
      "buffer": 0,
      "byteLength": 23296,
      "byteStride": 32,
      "target": 34962
    },
    {
      "buffer": 0,
      "byteLength": 3768,
      "byteOffset": 23296,
      "target": 34963
    }
  ],
  "buffers": [
    {
      "byteLength": 27064,
      "uri": "Guizi.bin"
    }
  ],
  "materials": [
    {
      "name": "fallback Material",
      "pbrMetallicRoughness": {
        "baseColorFactor": [
          0.0,
          0.0,
          0.0,
          1.0
        ]
      }
    },
    {
      "name": "fallback Material",
      "pbrMetallicRoughness": {
        "baseColorFactor": [
          0.0,
          0.0,
          0.0,
          1.0
        ]
      }
    },
    {
      "name": "fallback Material",
      "pbrMetallicRoughness": {
        "baseColorFactor": [
          0.0,
          0.0,
          0.0,
          1.0
        ]
      }
    },
    {
      "name": "fallback Material",
      "pbrMetallicRoughness": {
        "baseColorFactor": [
          0.0,
          0.0,
          0.0,
          1.0
        ]
      }
    },
    {
      "name": "fallback Material",
      "pbrMetallicRoughness": {
        "baseColorFactor": [
          0.0,
          0.0,
          0.0,
          1.0
        ]
      }
    }
  ],
  "meshes": [
    {
      "name": "Obj3d66-848518-407-879",
      "primitives": [
        {
          "attributes": {
            "NORMAL": 1,
            "POSITION": 0
          },
          "indices": 2,
          "material": 0,
          "mode": 4
        },
        {
          "attributes": {
            "NORMAL": 4,
            "POSITION": 3
          },
          "indices": 5,
          "material": 1,
          "mode": 4
        },
        {
          "attributes": {
            "NORMAL": 7,
            "POSITION": 6
          },
          "indices": 8,
          "material": 2,
          "mode": 4
        },
        {
          "attributes": {
            "NORMAL": 10,
            "POSITION": 9
          },
          "indices": 11,
          "material": 3,
          "mode": 4
        },
        {
          "attributes": {
            "NORMAL": 13,
            "POSITION": 12
          },
          "indices": 14,
          "material": 4,
          "mode": 4
        }
      ]
    }
  ],
  "nodes": [
    {
      "matrix": [
        0.001,
        0.0,
        0.0,
        0.0,
        0.0,
        0.001,
        0.0,
        0.0,
        0.0,
        0.0,
        0.001,
        0.0,
        0.0,
        0.0,
        0.0,
        1.0
      ],
      "mesh": 0,
      "name": "Obj3d66-848518-407-879"
    },
    {
      "children": [
        0
      ],
      "matrix": [
        1.0,
        0.0,
        -1.5099580252808664e-07,
        0.0,
        1.5099580252808664e-07,
        -8.742277657347586e-08,
        1.0,
        0.0,
        1.3200472311102659e-14,
        1.0,
        8.742277657347586e-08,
        0.0,
        0.8406279296875,
        1.995,
        -6.5431845703125004,
        1.0
      ]
    }
  ],
  "scenes": [
    {
      "nodes": [
        1
      ]
    }
  ]
}
