{
  "accessors": [
    {
      "bufferView": 2,
      "componentType": 5126,
      "count": 4,
      "max": [
        -0.3678149878978729,
        0.21596699953079224,
        1.4213420152664185
      ],
      "min": [
        -0.3678149878978729,
        -0.2295359969139099,
        0.6870819926261902
      ],
      "type": "VEC3"
    },
    {
      "bufferView": 0,
      "componentType": 5125,
      "count": 4,
      "type": "SCALAR"
    },
    {
      "bufferView": 2,
      "byteOffset": 48,
      "componentType": 5126,
      "count": 46,
      "max": [
        0.2911109924316406,
        0.3187659978866577,
        1.4190130233764648
      ],
      "min": [
        -0.33205899596214294,
        -0.30440399050712585,
        0.28571298718452454
      ],
      "type": "VEC3"
    },
    {
      "bufferView": 2,
      "byteOffset": 600,
      "componentType": 5126,
      "count": 46,
      "max": [
        0.9951865673065186,
        0.9951865673065186,
        0.0
      ],
      "min": [
        -0.9951865673065186,
        -0.9951865673065186,
        0.0
      ],
      "type": "VEC3"
    },
    {
      "bufferView": 1,
      "componentType": 5126,
      "count": 46,
      "max": [
        0.6732479929924011,
        0.7380459904670715
      ],
      "min": [
        0.0008590000215917826,
        0.0008590000215917826
      ],
      "type": "VEC2"
    },
    {
      "bufferView": 0,
      "byteOffset": 16,
      "componentType": 5125,
      "count": 120,
      "type": "SCALAR"
    },
    {
      "bufferView": 2,
      "byteOffset": 1152,
      "componentType": 5126,
      "count": 224,
      "max": [
        0.39882999658584595,
        0.3736549913883209,
        0.08521299809217453
      ],
      "min": [
        -0.39421600103378296,
        -0.32151100039482117,
        0.0
      ],
      "type": "VEC3"
    },
    {
      "bufferView": 2,
      "byteOffset": 3840,
      "componentType": 5126,
      "count": 224,
      "max": [
        1.0,
        1.0,
        0.0
      ],
      "min": [
        -1.0,
        -1.0,
        -1.0
      ],
      "type": "VEC3"
    },
    {
      "bufferView": 1,
      "byteOffset": 368,
      "componentType": 5126,
      "count": 224,
      "max": [
        0.9156929850578308,
        0.8593959808349609
      ],
      "min": [
        0.19080500304698944,
        0.0008590000215917826
      ],
      "type": "VEC2"
    },
    {
      "bufferView": 0,
      "byteOffset": 496,
      "componentType": 5125,
      "count": 516,
      "type": "SCALAR"
    },
    {
      "bufferView": 2,
      "byteOffset": 6528,
      "componentType": 5126,
      "count": 12603,
      "max": [
        0.4052079916000366,
        0.3736549913883209,
        1.6479610204696655
      ],
      "min": [
        -0.3969529867172241,
        -0.3749229907989502,
        0.06250999867916107
      ],
      "type": "VEC3"
    },
    {
      "bufferView": 2,
      "byteOffset": 157764,
      "componentType": 5126,
      "count": 12603,
      "max": [
        1.0,
        1.0,
        1.0
      ],
      "min": [
        -1.0,
        -1.0,
        -1.0
      ],
      "type": "VEC3"
    },
    {
      "bufferView": 1,
      "byteOffset": 2160,
      "componentType": 5126,
      "count": 12603,
      "max": [
        0.9739620089530945,
        0.9991409778594971
      ],
      "min": [
        0.0008590000215917826,
        0.0008590000215917826
      ],
      "type": "VEC2"
    },
    {
      "bufferView": 0,
      "byteOffset": 2560,
      "componentType": 5125,
      "count": 37935,
      "type": "SCALAR"
    }
  ],
  "asset": {
    "extras": {
      "author": "PiyalakNuchim (https://sketchfab.com/PiyalakNuchim)",
      "license": "CC-BY-4.0 (http://creativecommons.org/licenses/by/4.0/)",
      "source": "https://sketchfab.com/3d-models/aircondition-ae26f37f22404719807b2e6f3b812606",
      "title": "Aircondition"
    },
    "generator": "Sketchfab-12.65.0",
    "version": "2.0"
  },
  "bufferViews": [
    {
      "buffer": 0,
      "byteLength": 154300,
      "name": "floatBufferViews",
      "target": 34963
    },
    {
      "buffer": 0,
      "byteLength": 102984,
      "byteOffset": 154300,
      "byteStride": 8,
      "name": "floatBufferViews",
      "target": 34962
    },
    {
      "buffer": 0,
      "byteLength": 309000,
      "byteOffset": 257284,
      "byteStride": 12,
      "name": "floatBufferViews",
      "target": 34962
    }
  ],
  "buffers": [
    {
      "byteLength": 566284,
      "uri": "scene.bin"
    }
  ],
  "materials": [
    {
      "doubleSided": true,
      "name": "InternalFilter",
      "pbrMetallicRoughness": {
        "baseColorFactor": [
          0.19073932926829268,
          0.19073932926829268,
          0.19073932926829268,
          1.0
        ],
        "metallicFactor": 0.0
      }
    },
    {
      "doubleSided": true,
      "name": "WhitePaint",
      "pbrMetallicRoughness": {
        "metallicFactor": 0.0,
        "roughnessFactor": 0.36147103658536583
      }
    }
  ],
  "meshes": [
    {
      "name": "Object_0",
      "primitives": [
        {
          "attributes": {
            "POSITION": 0
          },
          "indices": 1,
          "material": 0,
          "mode": 1
        }
      ]
    },
    {
      "name": "Object_1",
      "primitives": [
        {
          "attributes": {
            "NORMAL": 3,
            "POSITION": 2,
            "TEXCOORD_0": 4
          },
          "indices": 5,
          "material": 0,
          "mode": 4
        }
      ]
    },
    {
      "name": "Object_2",
      "primitives": [
        {
          "attributes": {
            "NORMAL": 7,
            "POSITION": 6,
            "TEXCOORD_0": 8
          },
          "indices": 9,
          "material": 1,
          "mode": 4
        }
      ]
    },
    {
      "name": "Object_3",
      "primitives": [
        {
          "attributes": {
            "NORMAL": 11,
            "POSITION": 10,
            "TEXCOORD_0": 12
          },
          "indices": 13,
          "material": 1,
          "mode": 4
        }
      ]
    }
  ],
  "nodes": [
    {
      "children": [
        1
      ],
      "matrix": [
        1.2847272157669067,
        0.0,
        0.0,
        0.0,
        0.0,
        2.8526674706139826e-16,
        -1.2847272157669067,
        0.0,
        0.0,
        1.2847272157669067,
        2.8526674706139826e-16,
        0.0,
        0.0,
        0.0,
        0.0,
        1.0
      ],
      "name": "Sketchfab_model"
    },
    {
      "children": [
        2,
        3,
        4,
        5
      ],
      "name": "AC.obj.cleaner.materialmerger.gles"
    },
    {
      "mesh": 0,
      "name": "Object_2"
    },
    {
      "mesh": 1,
      "name": "Object_3"
    },
    {
      "mesh": 2,
      "name": "Object_4"
    },
    {
      "mesh": 3,
      "name": "Object_5"
    }
  ],
  "scene": 0,
  "scenes": [
    {
      "name": "Sketchfab_Scene",
      "nodes": [
        0
      ]
    }
  ]
}
